<?xml version="1.0" encoding="UTF-8" standalone="no"?>
<svg
   xmlns:dc="http://purl.org/dc/elements/1.1/"
   xmlns:cc="http://creativecommons.org/ns#"
   xmlns:rdf="http://www.w3.org/1999/02/22-rdf-syntax-ns#"
   xmlns:svg="http://www.w3.org/2000/svg"
   xmlns="http://www.w3.org/2000/svg"
   xmlns:sodipodi="http://sodipodi.sourceforge.net/DTD/sodipodi-0.dtd"
   xmlns:inkscape="http://www.inkscape.org/namespaces/inkscape"
   id="svg910"
   version="1.1"
   viewBox="0 0 65.912308 17.795826"
   height="17.795826mm"
   width="65.912308mm"
   sodipodi:docname="yjs-community.svg"
   inkscape:version="0.92.3 (2405546, 2018-03-11)">
  <sodipodi:namedview
     pagecolor="#ffffff"
     bordercolor="#666666"
     borderopacity="1"
     objecttolerance="10"
     gridtolerance="10"
     guidetolerance="10"
     inkscape:pageopacity="0"
     inkscape:pageshadow="2"
     inkscape:window-width="2493"
     inkscape:window-height="1376"
     id="namedview16"
     showgrid="false"
     inkscape:zoom="1.4089743"
     inkscape:cx="-1.4194772"
     inkscape:cy="33.629906"
     inkscape:window-x="67"
     inkscape:window-y="27"
     inkscape:window-maximized="1"
     inkscape:current-layer="text4663-2-3-5" />
  <defs
     id="defs904" />
  <metadata
     id="metadata907">
    <rdf:RDF>
      <cc:Work
         rdf:about="">
        <dc:format>image/svg+xml</dc:format>
        <dc:type
           rdf:resource="http://purl.org/dc/dcmitype/StillImage" />
        <dc:title />
      </cc:Work>
    </rdf:RDF>
  </metadata>
  <path
     style="font-style:normal;font-weight:normal;font-size:10.58333302px;line-height:1.25;font-family:sans-serif;letter-spacing:0px;word-spacing:0px;opacity:1;fill:#6eeb83;fill-opacity:1;stroke:none;stroke-width:0.26458332"
     d="M 10.04106,0 C 9.27211,0.008 8.72228,0.38862 8.39155,1.14102 l -2.37919,5.5392 v 0.0217 L 7.73887,9.29401 11.65336,2.57969 C 11.97582,2.02573 11.95929,1.45521 11.60376,0.86817 11.24823,0.2894 10.7356,1e-5 10.06587,1e-5 Z"
     id="path1304-2"
     inkscape:connector-curvature="0" />
  <path
     id="path1307-0"
     style="font-style:normal;font-weight:normal;font-size:10.58333302px;line-height:1.25;font-family:sans-serif;letter-spacing:0px;word-spacing:0px;opacity:1;fill:#30bced;fill-opacity:1;stroke:none;stroke-width:0.26458332"
     d="m 6.01236,6.68797 -2.01434,2.7218 0.0155,0.0284 v 4.41523 c 0,0.61185 0.1819,1.09968 0.5457,1.46348 0.35554,0.3638 0.78549,0.5457 1.28985,0.5457 h 0.0496 c 0.0406,0 0.074,-0.0198 0.11369,-0.0222 z M 7.73887,9.29401 6.01236,6.70192 v 9.13846 c 0.44556,-0.0273 0.84213,-0.18945 1.17616,-0.52348 0.3638,-0.35553 0.5457,-0.84336 0.5457,-1.46348 V 9.30176 Z"
     inkscape:connector-curvature="0" />
  <path
     style="font-style:normal;font-weight:normal;font-size:10.58333302px;line-height:1.25;font-family:sans-serif;letter-spacing:0px;word-spacing:0px;opacity:1;fill:#ffbc42;fill-opacity:1;stroke:none;stroke-width:0.26458332"
     d="M 1.8059,0 C 1.16098,0.008 0.65662,0.29766 0.29282,0.86817 -0.07099,1.43867 -0.09579,2.00505 0.21842,2.56729 l 3.77962,6.84248 2.01434,-2.7218 v -0.008 l -0.002,0.005 C 5.20009,4.89904 4.41461,3.05109 3.65393,1.14112 3.35628,0.38045 2.80644,1.1e-4 2.00442,1.1e-4 Z"
     id="text3715-6-6-6-2-6-9-6"
     inkscape:connector-curvature="0" />
  <g
     aria-label="js"
     style="font-style:normal;font-weight:normal;font-size:10.58333302px;line-height:1.25;font-family:sans-serif;letter-spacing:0px;word-spacing:0px;fill:#313330;fill-opacity:1;stroke:none;stroke-width:0.26458332"
     id="text3723-9-5-1"
     transform="translate(-132.45296,-246.63637)">
    <path
       d="m 143.40997,262.00879 q 0,1.09554 -0.5426,1.79317 -0.63045,0.80099 -1.72082,0.58394 -0.093,-0.0207 -0.23255,-0.0827 -0.33073,-0.16019 -0.33073,-0.52193 v 0 q 0,-0.22738 0.14986,-0.39791 0.15503,-0.16536 0.38758,-0.16536 0.20154,0 0.38757,-0.0982 0.44959,-0.21187 0.44959,-1.00769 v -3.43131 q 0,-0.29973 0.21187,-0.5116 0.20154,-0.20671 0.50643,-0.20671 h 0.0207 q 0.30489,-0.005 0.50643,0.20671 0.2067,0.21187 0.2067,0.5116 z m -0.22737,-4.7439 q -0.22738,0.24288 -0.56328,0.24288 -0.32556,0 -0.56844,-0.24288 -0.22737,-0.22737 -0.22737,-0.5581 0,-0.33073 0.22737,-0.56328 0.22738,-0.23771 0.56844,-0.23771 0.3359,0 0.56328,0.23771 0.22221,0.23255 0.22737,0.56328 -0.005,0.31006 -0.22737,0.5581 z"
       style="font-style:normal;font-variant:normal;font-weight:normal;font-stretch:normal;font-family:Dyuthi;-inkscape-font-specification:Dyuthi;fill:#313330;fill-opacity:1;stroke-width:0.26458332"
       id="path823"
       inkscape:connector-curvature="0" />
    <path
       d="m 144.0766,261.70907 q 0.0465,-0.19637 0.25321,-0.3204 0.18604,-0.11369 0.40308,-0.0413 0.41858,0.13436 0.73897,0.12402 0.62012,-0.0103 0.62012,-0.38757 0,-0.17053 -0.13953,-0.28939 -0.12402,-0.0982 -0.53743,-0.24288 -1.34359,-0.45992 -1.33325,-1.4056 0.0155,-0.67696 0.52193,-1.09037 0.5116,-0.42891 1.37459,-0.43408 0.40308,-0.005 0.83199,0.11369 0.19121,0.0517 0.29973,0.22737 0.11368,0.18087 0.0568,0.37724 v 0.005 q -0.0362,0.19637 -0.22738,0.31523 -0.18603,0.11368 -0.39274,0.0568 -0.28422,-0.0775 -0.52193,-0.0879 -0.55294,-0.0103 -0.55294,0.3669 0,0.1602 0.17053,0.28422 0.1447,0.11369 0.58395,0.26355 1.24023,0.43925 1.25057,1.42627 0.0103,0.67696 -0.4961,1.09554 -0.51159,0.42375 -1.50895,0.42375 -0.52193,0 -1.03869,-0.13953 -0.18087,-0.0517 -0.29973,-0.24804 -0.11368,-0.18087 -0.0568,-0.37724 z"
       style="font-style:normal;font-variant:normal;font-weight:normal;font-stretch:normal;font-family:Dyuthi;-inkscape-font-specification:Dyuthi;fill:#313330;fill-opacity:1;stroke-width:0.26458332"
       id="path825"
       inkscape:connector-curvature="0" />
  </g>
  <g
     id="text4663-2-3-5"
     style="font-style:normal;font-weight:normal;font-size:10.58333302px;line-height:1.25;font-family:sans-serif;letter-spacing:0px;word-spacing:0px;fill:#313330;fill-opacity:1;stroke:none;stroke-width:0.26458332"
     aria-label="Community"
     transform="translate(-52.466461,-136.91162)">
    <path
       inkscape:connector-curvature="0"
       id="path828"
       style="font-style:normal;font-variant:normal;font-weight:normal;font-stretch:normal;font-family:Dyuthi;-inkscape-font-specification:Dyuthi;fill:#313330;fill-opacity:1;stroke-width:0.26458332"
       d="m 74.43693,151.45373 q -0.206706,-0.0568 -0.434082,0.0362 -0.3514,0.14986 -0.728638,0.14986 -0.811319,0 -1.37976,-0.64079 -0.563273,-0.64079 -0.563273,-1.54512 0,-0.90951 0.56844,-1.5658 0.563274,-0.64079 1.374593,-0.64079 0.377238,0 0.738973,0.16537 0.206706,0.0982 0.413412,0.031 l 0.02067,-0.0103 q 0.392741,-0.12919 0.403077,-0.54777 0,-0.43408 -0.397909,-0.54777 -0.449585,-0.14986 -0.950846,-0.18604 -0.149862,-0.0207 -0.227377,-0.0103 -0.07235,-0.0103 -0.227376,0.0103 -1.452108,0.12919 -2.356445,0.99736 -0.940511,0.9095 -0.940511,2.37711 0,1.35909 0.826823,2.22726 0.888834,0.90434 2.470133,0.98185 0.09819,0.0155 0.155029,0.0155 h 0.03617 q 0.02067,0 0.03617,0 0.02067,0 0.04134,0 h 0.03617 q 0.05684,0 0.149862,-0.0155 0.501261,-0.0207 0.935343,-0.13436 0.444417,-0.11369 0.444417,-0.56327 0.0052,-0.45475 -0.428914,-0.58394 z" />
    <path
       inkscape:connector-curvature="0"
       id="path830"
       style="font-style:normal;font-variant:normal;font-weight:normal;font-stretch:normal;font-family:Dyuthi;-inkscape-font-specification:Dyuthi;fill:#313330;fill-opacity:1;stroke-width:0.26458332"
       d="m 77.87858,151.87747 q -0.346232,-0.005 -0.692464,-0.38757 -0.346232,-0.37724 -0.3514,-1.53996 0,-0.51676 0.3514,-0.91467 0.294556,-0.32556 0.692464,-0.33073 0.459921,0.005 0.764811,0.33073 0.268718,0.29972 0.273886,0.91467 -0.0052,1.22473 -0.273886,1.53996 -0.346232,0.3824 -0.764811,0.38757 z m 2.490804,-1.58646 q -0.0052,-1.0232 -0.733805,-1.74667 -0.72347,-0.72864 -1.762166,-0.72864 -0.07235,0 -0.139527,0.005 -0.894002,-0.005 -1.617472,0.71314 -0.718302,0.7183 -0.72347,1.75183 0,1.02836 0.744141,1.7725 0.749308,0.74414 1.741495,0.7028 0.06718,0.005 0.139527,0 0.878499,0.005 1.612304,-0.7183 0.733806,-0.72864 0.738973,-1.75183 z" />
    <path
       inkscape:connector-curvature="0"
       id="path832"
       style="font-style:normal;font-variant:normal;font-weight:normal;font-stretch:normal;font-family:Dyuthi;-inkscape-font-specification:Dyuthi;fill:#313330;fill-opacity:1;stroke-width:0.26458332"
       d="m 88.549763,150.22899 q 0,-1.11104 -0.558105,-1.79834 -0.63562,-0.78031 -1.715658,-0.56844 -0.377238,0.0775 -1.100708,0.79065 h -0.03101 q -0.661458,-1.09554 -1.865519,-0.79065 -0.201538,0.0517 -0.511596,0.26355 -0.05168,0.0413 -0.1757,0.17054 -0.09819,0.093 -0.149862,0.13435 v 0 q 0,-0.20153 -0.144694,-0.34106 -0.134359,-0.13436 -0.320394,-0.13436 h -0.54777 q -0.206706,0.005 -0.335897,0.13436 -0.134359,0.13436 -0.134359,0.34106 v 3.65353 q 0,0.28422 0.191203,0.47025 0.139527,0.1447 0.485759,0.1447 h 0.09819 q 0.346232,0 0.490926,-0.1447 0.19637,-0.19637 0.19637,-0.47025 v -2.43913 q 0,-0.31523 0.227377,-0.58394 0.211873,-0.25839 0.552938,-0.26355 0.356567,-0.0103 0.604614,0.23254 0.248047,0.24805 0.248047,0.58911 v 2.46497 q -0.0052,0.26872 0.19637,0.47025 0.134359,0.1447 0.480591,0.1447 h 0.134359 q 0.356567,0 0.485758,-0.1447 0.191203,-0.20153 0.191203,-0.47025 v -2.43913 q 0,-0.3359 0.227376,-0.58394 0.227376,-0.25839 0.563273,-0.26355 0.341065,-0.0103 0.594279,0.23254 0.258382,0.24805 0.258382,0.58911 v 2.46497 q 0,0.28422 0.186035,0.47025 0.139527,0.1447 0.490927,0.1447 h 0.01033 q 0.346232,0 0.480591,-0.1447 0.19637,-0.20153 0.19637,-0.47025 z" />
    <path
       inkscape:connector-curvature="0"
       id="path834"
       style="font-style:normal;font-variant:normal;font-weight:normal;font-stretch:normal;font-family:Dyuthi;-inkscape-font-specification:Dyuthi;fill:#313330;fill-opacity:1;stroke-width:0.26458332"
       d="m 96.776652,150.22899 q 0,-1.11104 -0.558106,-1.79834 -0.63562,-0.78031 -1.715657,-0.56844 -0.377238,0.0775 -1.100708,0.79065 h -0.03101 q -0.661458,-1.09554 -1.865519,-0.79065 -0.201538,0.0517 -0.511597,0.26355 -0.05168,0.0413 -0.1757,0.17054 -0.09819,0.093 -0.149861,0.13435 v 0 q 0,-0.20153 -0.144694,-0.34106 -0.134359,-0.13436 -0.320394,-0.13436 h -0.54777 q -0.206706,0.005 -0.335897,0.13436 -0.134359,0.13436 -0.134359,0.34106 v 3.65353 q 0,0.28422 0.191203,0.47025 0.139526,0.1447 0.485758,0.1447 h 0.09819 q 0.346232,0 0.490926,-0.1447 0.19637,-0.19637 0.19637,-0.47025 v -2.43913 q 0,-0.31523 0.227376,-0.58394 0.211874,-0.25839 0.552938,-0.26355 0.356568,-0.0103 0.604614,0.23254 0.248047,0.24805 0.248047,0.58911 v 2.46497 q -0.0052,0.26872 0.196371,0.47025 0.134358,0.1447 0.480591,0.1447 h 0.134358 q 0.356568,0 0.485759,-0.1447 0.191203,-0.20153 0.191203,-0.47025 v -2.43913 q 0,-0.3359 0.227376,-0.58394 0.227376,-0.25839 0.563273,-0.26355 0.341064,-0.0103 0.594279,0.23254 0.258382,0.24805 0.258382,0.58911 v 2.46497 q 0,0.28422 0.186035,0.47025 0.139527,0.1447 0.490926,0.1447 h 0.01034 q 0.346232,0 0.48059,-0.1447 0.196371,-0.20153 0.196371,-0.47025 z" />
    <path
       inkscape:connector-curvature="0"
       id="path836"
       style="font-style:normal;font-variant:normal;font-weight:normal;font-stretch:normal;font-family:Dyuthi;-inkscape-font-specification:Dyuthi;fill:#313330;fill-opacity:1;stroke-width:0.26458332"
       d="m 97.412271,150.44087 q 0,0.99735 0.54777,1.69498 0.63562,0.81132 1.715658,0.58395 0.454751,-0.093 1.095541,-0.47026 v 0 q -0.005,0.16537 0.14986,0.33073 0.13436,0.13953 0.32039,0.13953 h 0.54777 q 0.20671,0 0.3359,-0.13953 0.13436,-0.13952 0.13436,-0.33073 v -3.61735 q 0,-0.30489 -0.20671,-0.51159 -0.13952,-0.13953 -0.51159,-0.13953 h -0.0155 q -0.37207,-0.005 -0.52193,0.13953 -0.21704,0.2067 -0.21704,0.51159 v 2.13941 0.005 q 0,0.031 -0.0155,0.11369 -0.0672,0.33073 -0.49093,0.58911 -0.418576,0.24805 -0.961179,-0.0207 -0.454752,-0.21704 -0.454752,-0.91467 v -1.97921 q 0,-0.23771 -0.206706,-0.44441 -0.144694,-0.13953 -0.511597,-0.13953 h -0.0155 q -0.366902,-0.005 -0.511596,0.13953 -0.206706,0.21187 -0.206706,0.44441 z" />
    <path
       inkscape:connector-curvature="0"
       id="path838"
       style="fill:#483e37;stroke-width:0.26458332"
       d="m 107.76823,150.26517 q -0.005,-1.19373 -0.36174,-1.66398 -0.66146,-0.8475 -1.90169,-0.64079 -0.36174,0.062 -1.10588,0.50126 v -0.0103 q 0,-0.17053 -0.12919,-0.32039 -0.13436,-0.14986 -0.34106,-0.14986 h -0.53744 q -0.18086,0.005 -0.34106,0.14986 -0.13953,0.12919 -0.13953,0.33073 v 3.67419 q 0,0.29456 0.21704,0.5116 0.13953,0.13953 0.5116,0.13953 h 0.0258 q 0.3669,0.005 0.51159,-0.13953 0.20671,-0.2067 0.20671,-0.5116 v -2.18591 q 0,0 0,-0.0103 0,-0.0155 0.0155,-0.11369 0.0517,-0.25838 0.50126,-0.5271 0.50127,-0.30489 0.97152,-0.0775 0.43408,0.21704 0.43408,0.95602 v 1.95853 q 0,0.3049 0.21704,0.5116 0.1447,0.13953 0.5116,0.13953 h 0.005 q 0.37207,0.005 0.52193,-0.13953 0.21704,-0.21704 0.21704,-0.5116 z" />
    <path
       inkscape:connector-curvature="0"
       id="path840"
       style="fill:#483e37;stroke-width:0.26458332"
       d="m 109.17383,152.70429 q -0.3204,0 -0.54777,-0.2222 -0.22221,-0.22738 -0.22221,-0.54777 v -3.04891 q 0,-0.3204 0.22737,-0.54777 0.22738,-0.22738 0.54261,-0.22738 h 0.0103 q 0.31006,0.005 0.53744,0.22738 0.22737,0.22737 0.22737,0.54777 v 3.04891 q 0,0.32039 -0.22737,0.54777 -0.22221,0.2222 -0.53744,0.2222 z m 0.48575,-5.25549 q -0.24288,0.23771 -0.56844,0.23771 -0.33073,0 -0.56327,-0.23771 -0.22738,-0.22737 -0.22738,-0.56327 0,-0.32556 0.22738,-0.55811 0.23254,-0.23254 0.56327,-0.23254 0.3204,0 0.56844,0.23254 0.22221,0.21704 0.22738,0.55811 -0.005,0.3359 -0.22738,0.56327 z" />
    <path
       inkscape:connector-curvature="0"
       id="path842"
       style="fill:#483e37;stroke-width:0.26458332"
       d="m 112.86352,151.47956 q -0.43925,-0.22737 -0.43408,-1.01802 v -1.35909 h 0.43408 q 0.20154,0 0.3359,-0.13436 0.14469,-0.12919 0.14469,-0.34623 v -0.0103 q 0,-0.1912 -0.14469,-0.34106 -0.14469,-0.14986 -0.3359,-0.14986 h -0.43408 v -0.5271 q -0.005,-0.24288 -0.15503,-0.43409 -0.2067,-0.26355 -0.3824,-0.26355 h -0.0207 q -0.28423,-0.005 -0.43925,0.12403 -0.28422,0.21187 -0.28422,0.57361 v 0.5271 h -0.18604 q -0.20671,0 -0.3514,0.14986 -0.13953,0.13952 -0.13953,0.34106 v 0.0103 q 0,0.21704 0.13953,0.34623 0.13953,0.13436 0.3514,0.13436 h 0.18604 v 1.26607 0 q 0,0.96635 0.32039,1.60197 0.37724,0.73897 0.99735,0.7338 0.38241,0.005 0.55811,-0.52709 0.0724,-0.22738 0.0465,-0.39791 -0.0362,-0.20154 -0.20671,-0.29973 z" />
    <path
       inkscape:connector-curvature="0"
       id="path844"
       style="fill:#ee6352;fill-opacity:1;stroke-width:0.26458332"
       d="m 117.68493,147.87255 q -0.24804,0 -0.41341,0.12919 -0.2067,0.16536 -0.23771,0.34106 -0.3514,2.04639 -0.79065,2.96623 l -0.84232,-2.98173 q -0.0672,-0.24805 -0.24288,-0.33073 -0.28422,-0.12402 -0.38758,-0.12402 h -0.12402 q -0.35657,0 -0.55811,0.29972 -0.19637,0.30489 -0.0465,0.63562 0.93017,2.0929 1.22989,3.56051 v 0.0155 q 0,0.80099 -0.44441,1.01803 -0.19121,0.093 -0.39791,0.0982 -0.26355,-0.005 -0.37724,0.16537 -0.17053,0.28938 -0.17053,0.38757 v 0.0103 q 0.005,0.38241 0.34106,0.5116 0.14986,0.0568 0.24805,0.0827 0.85266,0.1757 1.52445,-0.29455 0.60462,-0.41341 0.86817,-1.20406 1.41593,-4.24264 1.47278,-4.40283 0.11885,-0.33073 -0.093,-0.60979 -0.21704,-0.27388 -0.54777,-0.27388 z" />
  </g>
</svg>
