<?xml version="1.0" encoding="UTF-8" standalone="no"?>
<svg
   xmlns:dc="http://purl.org/dc/elements/1.1/"
   xmlns:cc="http://creativecommons.org/ns#"
   xmlns:rdf="http://www.w3.org/1999/02/22-rdf-syntax-ns#"
   xmlns:svg="http://www.w3.org/2000/svg"
   xmlns="http://www.w3.org/2000/svg"
   id="svg910"
   version="1.1"
   viewBox="0 0 65.912308 17.795826"
   height="17.795826mm"
   width="65.912308mm">
  <defs
     id="defs904" />
  <metadata
     id="metadata907">
    <rdf:RDF>
      <cc:Work
         rdf:about="">
        <dc:format>image/svg+xml</dc:format>
        <dc:type
           rdf:resource="http://purl.org/dc/dcmitype/StillImage" />
        <dc:title></dc:title>
      </cc:Work>
    </rdf:RDF>
  </metadata>
  <g
     transform="translate(-52.466461,-136.91162)"
     id="layer1">
    <g
       id="g5353"
       transform="translate(-79.986501,-109.72475)">
      <path
         style="font-style:normal;font-weight:normal;font-size:10.58333302px;line-height:1.25;font-family:sans-serif;letter-spacing:0px;word-spacing:0px;opacity:1;fill:#6eeb83;fill-opacity:1;stroke:none;stroke-width:0.26458332"
         d="m 142.49402,246.63637 c -0.76895,0.008 -1.31878,0.38862 -1.64951,1.14102 l -2.37919,5.5392 v 0.0217 l 1.72651,2.59209 3.91449,-6.71432 c 0.32246,-0.55396 0.30593,-1.12448 -0.0496,-1.71152 -0.35553,-0.57877 -0.86816,-0.86816 -1.53789,-0.86816 z"
         id="path1304-2" />
      <path
         id="path1307-0"
         style="font-style:normal;font-weight:normal;font-size:10.58333302px;line-height:1.25;font-family:sans-serif;letter-spacing:0px;word-spacing:0px;opacity:1;fill:#30bced;fill-opacity:1;stroke:none;stroke-width:0.26458332"
         d="m 138.46532,253.32434 -2.01434,2.7218 0.0155,0.0284 v 4.41523 c 0,0.61185 0.1819,1.09968 0.5457,1.46348 0.35554,0.3638 0.78549,0.5457 1.28985,0.5457 h 0.0496 c 0.0406,0 0.074,-0.0198 0.11369,-0.0222 z m 1.72651,2.60604 -1.72651,-2.59209 v 9.13846 c 0.44556,-0.0273 0.84213,-0.18945 1.17616,-0.52348 0.3638,-0.35553 0.5457,-0.84336 0.5457,-1.46348 v -4.55166 z" />
      <path
         style="font-style:normal;font-weight:normal;font-size:10.58333302px;line-height:1.25;font-family:sans-serif;letter-spacing:0px;word-spacing:0px;opacity:1;fill:#ffbc42;fill-opacity:1;stroke:none;stroke-width:0.26458332"
         d="m 134.25886,246.63637 c -0.64492,0.008 -1.14928,0.29766 -1.51308,0.86817 -0.36381,0.5705 -0.38861,1.13688 -0.0744,1.69912 l 3.77962,6.84248 2.01434,-2.7218 v -0.008 l -0.002,0.005 c -0.81029,-1.78593 -1.59577,-3.63388 -2.35645,-5.54385 -0.29765,-0.76067 -0.84749,-1.14101 -1.64951,-1.14101 z"
         id="text3715-6-6-6-2-6-9-6" />
      <text
         xml:space="preserve"
         style="font-style:normal;font-weight:normal;font-size:10.58333302px;line-height:1.25;font-family:sans-serif;letter-spacing:0px;word-spacing:0px;fill:#313330;fill-opacity:1;stroke:none;stroke-width:0.26458332"
         x="139.93732"
         y="262.44287"
         id="text3723-9-5-1"><tspan
           id="tspan3721-1-0-5"
           x="139.93732"
           y="262.44287"
           style="font-style:normal;font-variant:normal;font-weight:normal;font-stretch:normal;font-family:Dyuthi;-inkscape-font-specification:Dyuthi;fill:#313330;fill-opacity:1;stroke-width:0.26458332">js</tspan></text>
    </g>
    <text
       id="text4663-2-3-5"
       y="152.66812"
       x="69.005737"
       style="font-style:normal;font-weight:normal;font-size:10.58333302px;line-height:1.25;font-family:sans-serif;letter-spacing:0px;word-spacing:0px;fill:#313330;fill-opacity:1;stroke:none;stroke-width:0.26458332"
       xml:space="preserve"><tspan
         style="font-style:normal;font-variant:normal;font-weight:normal;font-stretch:normal;font-family:Dyuthi;-inkscape-font-specification:Dyuthi;fill:#313330;fill-opacity:1;stroke-width:0.26458332"
         y="152.66812"
         x="69.005737"
         id="tspan4661-7-6-4">Commu<tspan
   style="fill:#483e37;stroke-width:0.26458332"
   id="tspan5197-7">nit</tspan><tspan
   style="fill:#ee6352;fill-opacity:1;stroke-width:0.26458332"
   id="tspan5206-6">y</tspan></tspan></text>
  </g>
</svg>
