<?xml version="1.0" encoding="UTF-8" standalone="no"?>
<!-- Created with Inkscape (http://www.inkscape.org/) -->

<svg
   xmlns:dc="http://purl.org/dc/elements/1.1/"
   xmlns:cc="http://creativecommons.org/ns#"
   xmlns:rdf="http://www.w3.org/1999/02/22-rdf-syntax-ns#"
   xmlns:svg="http://www.w3.org/2000/svg"
   xmlns="http://www.w3.org/2000/svg"
   xmlns:sodipodi="http://sodipodi.sourceforge.net/DTD/sodipodi-0.dtd"
   xmlns:inkscape="http://www.inkscape.org/namespaces/inkscape"
   width="15.024151mm"
   height="17.795807mm"
   viewBox="0 0 15.024151 17.795807"
   version="1.1"
   id="svg930"
   inkscape:version="0.92.4 (5da689c313, 2019-01-14)"
   sodipodi:docname="yjs.svg">
  <defs
     id="defs924" />
  <sodipodi:namedview
     id="base"
     pagecolor="#ffffff"
     bordercolor="#666666"
     borderopacity="1.0"
     inkscape:pageopacity="0.0"
     inkscape:pageshadow="2"
     inkscape:zoom="5.2766176"
     inkscape:cx="13.496188"
     inkscape:cy="-9.1927948"
     inkscape:document-units="mm"
     inkscape:current-layer="layer1"
     showgrid="false"
     inkscape:window-width="2560"
     inkscape:window-height="1330"
     inkscape:window-x="0"
     inkscape:window-y="36"
     inkscape:window-maximized="1"
     fit-margin-top="0"
     fit-margin-left="0"
     fit-margin-right="0"
     fit-margin-bottom="0" />
  <metadata
     id="metadata927">
    <rdf:RDF>
      <cc:Work
         rdf:about="">
        <dc:format>image/svg+xml</dc:format>
        <dc:type
           rdf:resource="http://purl.org/dc/dcmitype/StillImage" />
        <dc:title />
      </cc:Work>
    </rdf:RDF>
  </metadata>
  <g
     inkscape:label="Layer 1"
     inkscape:groupmode="layer"
     id="layer1"
     transform="translate(-71.365272,-129.3521)">
    <g
       transform="translate(-61.08769,-117.28427)"
       id="g5353">
      <path
         inkscape:connector-curvature="0"
         id="path1304-2"
         d="m 142.49402,246.63637 c -0.76895,0.008 -1.31878,0.38862 -1.64951,1.14102 l -2.37919,5.5392 v 0.0217 l 1.72651,2.59209 3.91449,-6.71432 c 0.32246,-0.55396 0.30593,-1.12448 -0.0496,-1.71152 -0.35553,-0.57877 -0.86816,-0.86816 -1.53789,-0.86816 z"
         style="font-style:normal;font-weight:normal;font-size:10.58333302px;line-height:1.25;font-family:sans-serif;letter-spacing:0px;word-spacing:0px;opacity:1;fill:#6eeb83;fill-opacity:1;stroke:none;stroke-width:0.26458332" />
      <path
         inkscape:connector-curvature="0"
         d="m 138.46532,253.32434 -2.01434,2.7218 0.0155,0.0284 v 4.41523 c 0,0.61185 0.1819,1.09968 0.5457,1.46348 0.35554,0.3638 0.78549,0.5457 1.28985,0.5457 h 0.0496 c 0.0406,0 0.074,-0.0198 0.11369,-0.0222 z m 1.72651,2.60604 -1.72651,-2.59209 v 9.13846 c 0.44556,-0.0273 0.84213,-0.18945 1.17616,-0.52348 0.3638,-0.35553 0.5457,-0.84336 0.5457,-1.46348 v -4.55166 z"
         style="font-style:normal;font-weight:normal;font-size:10.58333302px;line-height:1.25;font-family:sans-serif;letter-spacing:0px;word-spacing:0px;opacity:1;fill:#30bced;fill-opacity:1;stroke:none;stroke-width:0.26458332"
         id="path1307-0" />
      <path
         inkscape:connector-curvature="0"
         id="text3715-6-6-6-2-6-9-6"
         d="m 134.25886,246.63637 c -0.64492,0.008 -1.14928,0.29766 -1.51308,0.86817 -0.36381,0.5705 -0.38861,1.13688 -0.0744,1.69912 l 3.77962,6.84248 2.01434,-2.7218 v -0.008 l -0.002,0.005 c -0.81029,-1.78593 -1.59577,-3.63388 -2.35645,-5.54385 -0.29765,-0.76067 -0.84749,-1.14101 -1.64951,-1.14101 z"
         style="font-style:normal;font-weight:normal;font-size:10.58333302px;line-height:1.25;font-family:sans-serif;letter-spacing:0px;word-spacing:0px;opacity:1;fill:#ffbc42;fill-opacity:1;stroke:none;stroke-width:0.26458332" />
      <text
         inkscape:export-ydpi="731.45172"
         inkscape:export-xdpi="731.45172"
         id="text3723-9-5-1"
         y="262.44287"
         x="139.93732"
         style="font-style:normal;font-weight:normal;font-size:10.58333302px;line-height:1.25;font-family:sans-serif;letter-spacing:0px;word-spacing:0px;fill:#313330;fill-opacity:1;stroke:none;stroke-width:0.26458332"
         xml:space="preserve"><tspan
           style="font-style:normal;font-variant:normal;font-weight:normal;font-stretch:normal;font-family:Dyuthi;-inkscape-font-specification:Dyuthi;fill:#313330;fill-opacity:1;stroke-width:0.26458332"
           y="262.44287"
           x="139.93732"
           id="tspan3721-1-0-5"
           sodipodi:role="line">js</tspan></text>
    </g>
  </g>
</svg>
